<?xml version="1.0" encoding="UTF-8" standalone="no"?>
<svg
   xmlns:dc="http://purl.org/dc/elements/1.1/"
   xmlns:cc="http://creativecommons.org/ns#"
   xmlns:rdf="http://www.w3.org/1999/02/22-rdf-syntax-ns#"
   xmlns:svg="http://www.w3.org/2000/svg"
   xmlns="http://www.w3.org/2000/svg"
   xmlns:sodipodi="http://sodipodi.sourceforge.net/DTD/sodipodi-0.dtd"
   xmlns:inkscape="http://www.inkscape.org/namespaces/inkscape"
   version="1.1"
   id="Capa_1"
   x="0px"
   y="0px"
   viewBox="0 0 512 512"
   style="enable-background:new 0 0 512 512;"
   xml:space="preserve"
   sodipodi:docname="cookie-order.svg"
   inkscape:version="1.0.2 (1.0.2+r75+1)"><metadata
   id="metadata73"><rdf:RDF><cc:Work
       rdf:about=""><dc:format>image/svg+xml</dc:format><dc:type
         rdf:resource="http://purl.org/dc/dcmitype/StillImage" /></cc:Work></rdf:RDF></metadata><defs
   id="defs71" /><sodipodi:namedview
   pagecolor="#ffffff"
   bordercolor="#666666"
   borderopacity="1"
   objecttolerance="10"
   gridtolerance="10"
   guidetolerance="10"
   inkscape:pageopacity="0"
   inkscape:pageshadow="2"
   inkscape:window-width="1280"
   inkscape:window-height="967"
   id="namedview69"
   showgrid="false"
   inkscape:zoom="0.328125"
   inkscape:cx="347.22029"
   inkscape:cy="518.36238"
   inkscape:window-x="0"
   inkscape:window-y="27"
   inkscape:window-maximized="1"
   inkscape:current-layer="Capa_1"
   inkscape:document-rotation="0" />
<g
   id="g36"
   style="fill:#333333;fill-opacity:1">
	<g
   id="g34"
   style="fill:#333333;fill-opacity:1">
		<g
   id="g32"
   style="fill:#333333;fill-opacity:1">
			<path
   d="M469.333,0H42.667C19.114,0.028,0.028,19.114,0,42.667v426.667C0.028,492.886,19.114,511.972,42.667,512h426.667     c23.552-0.028,42.638-19.114,42.667-42.667V42.667C511.972,19.114,492.886,0.028,469.333,0z M494.933,469.333     c0,14.138-11.461,25.6-25.6,25.6H42.667c-14.138,0-25.6-11.461-25.6-25.6v-384h477.867V469.333z M494.933,68.267H17.067v-25.6     c0-14.138,11.462-25.6,25.6-25.6h426.667c14.138,0,25.6,11.462,25.6,25.6V68.267z"
   id="path2"
   style="fill:#333333;fill-opacity:1" />
			<path
   d="M59.733,34.133H51.2c-4.713,0-8.533,3.82-8.533,8.533S46.487,51.2,51.2,51.2h8.533c4.713,0,8.533-3.82,8.533-8.533     S64.446,34.133,59.733,34.133z"
   id="path4"
   style="fill:#333333;fill-opacity:1" />
			<path
   d="M102.4,34.133h-8.533c-4.713,0-8.533,3.82-8.533,8.533s3.821,8.533,8.533,8.533h8.533c4.713,0,8.533-3.82,8.533-8.533     S107.113,34.133,102.4,34.133z"
   id="path6"
   style="fill:#333333;fill-opacity:1" />
			<path
   d="M145.067,34.133h-8.533c-4.713,0-8.533,3.82-8.533,8.533s3.82,8.533,8.533,8.533h8.533c4.713,0,8.533-3.82,8.533-8.533     S149.779,34.133,145.067,34.133z"
   id="path8"
   style="fill:#333333;fill-opacity:1" />
			<path
   d="M460.8,34.133H179.2c-4.713,0-8.533,3.82-8.533,8.533s3.82,8.533,8.533,8.533h281.6c4.713,0,8.533-3.82,8.533-8.533     S465.513,34.133,460.8,34.133z"
   id="path10"
   style="fill:#333333;fill-opacity:1" />
			<path
   d="M256,375.467c50.089-0.005,96.159-27.42,120.055-71.441c0.102-0.222,0.19-0.45,0.265-0.683     c0.06-0.128,0.102-0.265,0.154-0.401c0.385-0.983,0.593-2.026,0.614-3.081c-0.016-1.021-0.219-2.03-0.597-2.978     c-0.068-0.188-0.128-0.367-0.205-0.538c-0.403-0.886-0.954-1.697-1.63-2.398c-0.081-0.078-0.167-0.153-0.256-0.222     c-0.318-0.333-0.663-0.639-1.033-0.913c-11.24-7.618-16.895-21.173-14.403-34.52s12.658-23.948,25.889-26.997     c0.905-0.396,1.807-0.8,2.705-1.212c0.445-0.316,0.859-0.673,1.237-1.067c0.404-0.357,0.772-0.751,1.101-1.178     c0.293-0.454,0.539-0.938,0.734-1.442c0.245-0.483,0.442-0.989,0.589-1.51c0.099-0.563,0.142-1.135,0.128-1.707     c0.061-0.418,0.093-0.84,0.094-1.263c0-0.265-0.102-0.521-0.137-0.794v-0.051c-2.429-18.993-8.898-37.245-18.97-53.53     l-0.085-0.094c0,0,0-0.094-0.06-0.137c-0.365-0.463-0.783-0.881-1.246-1.246c-0.314-0.381-0.663-0.732-1.041-1.05     c-0.537-0.322-1.109-0.58-1.707-0.768c-0.409-0.215-0.838-0.393-1.28-0.529c-1.085-0.069-2.173-0.097-3.26-0.085     c-0.554,0.142-1.092,0.342-1.604,0.597c-0.501,0.128-0.987,0.308-1.451,0.538l-0.102,0.094l-0.119,0.051     c-12.61,8.407-29.249,7.511-40.883-2.202c-11.634-9.713-15.486-25.925-9.464-39.833v-0.137c0.031-0.038,0.06-0.078,0.085-0.119     c0.138-0.508,0.227-1.028,0.265-1.553c0.147-0.524,0.244-1.062,0.29-1.604c-0.052-0.546-0.155-1.086-0.307-1.613     c-0.076-0.532-0.196-1.058-0.358-1.57c-0.264-0.504-0.575-0.981-0.93-1.425c-0.244-0.45-0.529-0.876-0.853-1.271     c-0.456-0.394-0.954-0.737-1.485-1.024c-0.372-0.32-0.772-0.605-1.195-0.853h-0.137c-0.039-0.033-0.082-0.062-0.128-0.085     c-51.143-19.818-109.18-7.109-147.359,32.27c-38.179,39.379-49.087,97.781-27.697,148.287     C151.615,342.686,201.152,375.488,256,375.467z M138.565,216.965c10.575-56.529,59.925-97.501,117.435-97.498     c12.046,0.023,24.019,1.879,35.507,5.504c-4.444,18.813,2.124,38.521,16.964,50.908s35.406,15.324,53.12,7.588     c5.599,10.562,9.542,21.922,11.691,33.681c-16.172,6.547-27.888,20.891-31.075,38.044c-3.186,17.154,2.597,34.748,15.339,46.666     c-30.291,48.885-91.113,69.252-144.734,48.464C159.191,329.535,127.99,273.494,138.565,216.965z"
   id="path12"
   style="fill:#333333;fill-opacity:1" />
			<path
   d="M247.467,213.333c18.851,0,34.133-15.282,34.133-34.133s-15.282-34.133-34.133-34.133s-34.133,15.282-34.133,34.133     S228.615,213.333,247.467,213.333z M247.467,162.133c9.426,0,17.067,7.641,17.067,17.067s-7.641,17.067-17.067,17.067     S230.4,188.626,230.4,179.2S238.041,162.133,247.467,162.133z"
   id="path14"
   style="fill:#333333;fill-opacity:1" />
			<path
   d="M204.8,230.4c0-14.138-11.461-25.6-25.6-25.6s-25.6,11.462-25.6,25.6s11.461,25.6,25.6,25.6S204.8,244.539,204.8,230.4z      M170.667,230.4c0-4.713,3.82-8.533,8.533-8.533s8.533,3.82,8.533,8.533s-3.82,8.533-8.533,8.533S170.667,235.113,170.667,230.4z     "
   id="path16"
   style="fill:#333333;fill-opacity:1" />
			<path
   d="M273.067,307.2c0,14.138,11.461,25.6,25.6,25.6s25.6-11.461,25.6-25.6s-11.461-25.6-25.6-25.6     S273.067,293.062,273.067,307.2z M298.667,298.667c4.713,0,8.533,3.82,8.533,8.533s-3.82,8.533-8.533,8.533     s-8.533-3.82-8.533-8.533S293.954,298.667,298.667,298.667z"
   id="path18"
   style="fill:#333333;fill-opacity:1" />
			<path
   d="M215.808,313.259c0.404,0.365,0.829,0.707,1.271,1.024c0.479,0.322,0.999,0.58,1.545,0.768     c0.484,0.247,1.001,0.419,1.536,0.512c0.564,0.095,1.135,0.152,1.707,0.171c2.27,0.023,4.454-0.869,6.059-2.474     c1.605-1.605,2.497-3.789,2.474-6.059c-0.018-0.573-0.078-1.143-0.179-1.707c-0.085-0.535-0.255-1.054-0.503-1.536     c-0.19-0.542-0.448-1.058-0.768-1.536c-0.315-0.447-0.657-0.875-1.024-1.28c-2.071-1.966-4.957-2.822-7.765-2.304     c-0.535,0.093-1.052,0.266-1.536,0.512c-0.546,0.188-1.065,0.446-1.545,0.768l-1.271,1.024l-1.024,1.28     c-0.323,0.476-0.581,0.992-0.768,1.536c-0.246,0.484-0.419,1.001-0.512,1.536c-0.095,0.564-0.152,1.135-0.171,1.707     c0.013,1.115,0.245,2.217,0.683,3.243C214.428,311.487,215.037,312.443,215.808,313.259z"
   id="path20"
   style="fill:#333333;fill-opacity:1" />
			<path
   d="M310.946,246.016c0.479,0.322,0.999,0.58,1.544,0.768c0.484,0.247,1.001,0.419,1.536,0.512     c0.564,0.099,1.134,0.156,1.707,0.171c2.259-0.033,4.422-0.917,6.059-2.475c0.79-0.802,1.4-1.761,1.792-2.816     c0.91-2.066,0.91-4.419,0-6.485c-0.412-1.044-1.021-2-1.792-2.816c-0.831-0.751-1.783-1.357-2.816-1.792     c-3.182-1.297-6.829-0.594-9.301,1.792c-3.3,3.365-3.3,8.752,0,12.117C310.079,245.357,310.503,245.699,310.946,246.016z"
   id="path22"
   style="fill:#333333;fill-opacity:1" />
			<path
   d="M259.243,239.616c-2.078-0.854-4.408-0.854-6.485,0c-1.044,0.412-2,1.021-2.816,1.792c-3.3,3.365-3.3,8.752,0,12.117     c0.816,0.771,1.772,1.38,2.816,1.792c2.066,0.91,4.419,0.91,6.485,0c1.033-0.435,1.985-1.041,2.816-1.792     c2.07-1.995,2.978-4.909,2.407-7.727C263.895,242.981,261.926,240.649,259.243,239.616z"
   id="path24"
   style="fill:#333333;fill-opacity:1" />
			<path
   d="M324.267,392.533H187.733c-23.564,0-42.667,19.103-42.667,42.667s19.103,42.667,42.667,42.667h136.533     c23.564,0,42.667-19.103,42.667-42.667S347.831,392.533,324.267,392.533z M324.267,460.8H187.733     c-14.138,0-25.6-11.462-25.6-25.6s11.461-25.6,25.6-25.6h136.533c14.138,0,25.6,11.461,25.6,25.6S338.405,460.8,324.267,460.8z"
   id="path26"
   style="fill:#333333;fill-opacity:1" />
			<path
   d="M377.97,386.502c-2.283,2.285-3.08,5.663-2.06,8.728l18.099,54.306c0.936,2.803,3.256,4.922,6.132,5.602     c2.876,0.679,5.899-0.178,7.991-2.265l12.066-12.066l30.174,30.165c3.348,3.234,8.671,3.188,11.962-0.104     c3.292-3.292,3.338-8.614,0.104-11.962l-30.174-30.165l12.075-12.075c2.092-2.09,2.953-5.115,2.275-7.993     s-2.798-5.201-5.603-6.138l-54.315-18.099C383.631,383.417,380.253,384.217,377.97,386.502z M422.511,414.362l-8.346,8.346     l-8.329,8.337l-8.346-25.02L422.511,414.362z"
   id="path28"
   style="fill:#333333;fill-opacity:1" />
			<path
   d="M315.733,426.667H196.267c-4.713,0-8.533,3.82-8.533,8.533s3.82,8.533,8.533,8.533h119.467     c4.713,0,8.533-3.82,8.533-8.533S320.446,426.667,315.733,426.667z"
   id="path30"
   style="fill:#333333;fill-opacity:1" />
		</g>
	</g>
</g>
<g
   id="g38">
</g>
<g
   id="g40">
</g>
<g
   id="g42">
</g>
<g
   id="g44">
</g>
<g
   id="g46">
</g>
<g
   id="g48">
</g>
<g
   id="g50">
</g>
<g
   id="g52">
</g>
<g
   id="g54">
</g>
<g
   id="g56">
</g>
<g
   id="g58">
</g>
<g
   id="g60">
</g>
<g
   id="g62">
</g>
<g
   id="g64">
</g>
<g
   id="g66">
</g>
</svg>
