<?xml version="1.0" encoding="UTF-8" standalone="no"?>
<svg
   xmlns:dc="http://purl.org/dc/elements/1.1/"
   xmlns:cc="http://creativecommons.org/ns#"
   xmlns:rdf="http://www.w3.org/1999/02/22-rdf-syntax-ns#"
   xmlns:svg="http://www.w3.org/2000/svg"
   xmlns="http://www.w3.org/2000/svg"
   xmlns:sodipodi="http://sodipodi.sourceforge.net/DTD/sodipodi-0.dtd"
   xmlns:inkscape="http://www.inkscape.org/namespaces/inkscape"
   id="Capa_1"
   enable-background="new 0 0 512.036 512.036"
   height="512"
   viewBox="0 0 512.036 512.036"
   width="512"
   version="1.1"
   sodipodi:docname="people-say.svg"
   inkscape:version="1.0.2 (1.0.2+r75+1)">
  <metadata
     id="metadata51">
    <rdf:RDF>
      <cc:Work
         rdf:about="">
        <dc:format>image/svg+xml</dc:format>
        <dc:type
           rdf:resource="http://purl.org/dc/dcmitype/StillImage" />
      </cc:Work>
    </rdf:RDF>
  </metadata>
  <defs
     id="defs49" />
  <sodipodi:namedview
     pagecolor="#ffffff"
     bordercolor="#666666"
     borderopacity="1"
     objecttolerance="10"
     gridtolerance="10"
     guidetolerance="10"
     inkscape:pageopacity="0"
     inkscape:pageshadow="2"
     inkscape:window-width="1280"
     inkscape:window-height="967"
     id="namedview47"
     showgrid="false"
     inkscape:zoom="0.92807765"
     inkscape:cx="193.6735"
     inkscape:cy="218.58372"
     inkscape:window-x="0"
     inkscape:window-y="27"
     inkscape:window-maximized="1"
     inkscape:current-layer="Capa_1" />
  <g
     id="g44"
     style="fill:#ffffff">
    <g
       id="g42"
       style="fill:#ffffff">
      <path
         d="m504.467 245.618c4.138 0 7.492-3.354 7.492-7.492v-56.667c0-13.847-11.265-25.112-25.111-25.112h-215.74c-13.846 0-25.111 11.265-25.111 25.112v99.195c0 13.846 11.265 25.111 25.111 25.111h125.149c2.754 0 5.427.982 7.527 2.768l51.762 43.996c2.452 2.084 5.449 3.16 8.498 3.16 1.876 0 3.772-.408 5.569-1.239 4.717-2.18 7.647-6.765 7.647-11.962v-36.723h9.589c13.846 0 25.111-11.265 25.111-25.111v-8.119c0-4.138-3.354-7.492-7.492-7.492s-7.492 3.354-7.492 7.492v8.119c0 5.584-4.542 10.126-10.126 10.126h-11.395c-7.267 0-13.179 5.912-13.179 13.179v34.623l-48.786-41.467c-4.806-4.086-10.925-6.335-17.231-6.335h-125.151c-5.584 0-10.126-4.542-10.126-10.126v-99.195c0-5.584 4.542-10.127 10.126-10.127h215.74c5.584 0 10.126 4.543 10.126 10.127v56.667c0 4.138 3.354 7.492 7.493 7.492z"
         id="path2"
         style="fill:#ffffff" />
      <path
         d="m25.188 149.418h9.588v36.723c0 5.197 2.93 9.78 7.647 11.961 1.797.831 3.693 1.239 5.569 1.239 3.048 0 6.047-1.076 8.498-3.159l51.762-43.997c2.099-1.785 4.772-2.768 7.527-2.768h56.584c4.138 0 7.492-3.354 7.492-7.492s-3.354-7.492-7.492-7.492h-56.584c-6.306 0-12.426 2.25-17.232 6.334l-48.786 41.469v-34.624c0-7.267-5.912-13.179-13.178-13.179h-11.395c-5.584 0-10.127-4.542-10.127-10.126v-99.195c0-5.584 4.543-10.127 10.127-10.127h215.74c5.584 0 10.127 4.543 10.127 10.127v99.195c0 5.584-4.543 10.126-10.127 10.126h-33.912c-4.138 0-7.492 3.354-7.492 7.492s3.354 7.492 7.492 7.492h33.912c13.847 0 25.112-11.265 25.112-25.111v-99.194c0-13.847-11.265-25.112-25.112-25.112h-215.74c-13.847 0-25.112 11.265-25.112 25.112v99.195c0 13.846 11.265 25.111 25.112 25.111z"
         id="path4"
         style="fill:#ffffff" />
      <path
         d="m240.928 312.694h-215.74c-13.847 0-25.112 11.265-25.112 25.112v99.195c0 13.846 11.265 25.111 25.112 25.111h9.588v36.723c0 5.197 2.93 9.78 7.647 11.961 1.797.831 3.693 1.239 5.569 1.239 3.048 0 6.047-1.076 8.498-3.159l51.762-43.997c2.099-1.785 4.772-2.768 7.527-2.768h125.149c13.847 0 25.112-11.265 25.112-25.111v-99.195c0-13.847-11.265-25.111-25.112-25.111zm10.127 124.307c0 5.584-4.543 10.126-10.127 10.126h-125.149c-6.306 0-12.426 2.25-17.232 6.334l-48.786 41.469v-34.624c0-7.267-5.912-13.179-13.178-13.179h-11.395c-5.584 0-10.127-4.542-10.127-10.126v-99.195c0-5.584 4.543-10.127 10.127-10.127h215.74c5.584 0 10.127 4.543 10.127 10.127z"
         id="path6"
         style="fill:#ffffff" />
      <path
         d="m55.176 86.181c-10.388 6.535-16.59 17.754-16.59 30.01 0 4.138 3.354 7.492 7.492 7.492h55.909c4.138 0 7.492-3.354 7.492-7.492 0-12.256-6.202-23.475-16.59-30.01-.783-.493-1.25-1.339-1.25-2.264 0-.848.401-1.635 1.1-2.162 8.627-6.491 13.229-16.805 12.312-27.589-1.286-15.119-13.679-27.31-28.826-28.355-8.735-.605-17.057 2.344-23.434 8.295-6.288 5.869-9.894 14.166-9.894 22.764 0 9.779 4.686 19.112 12.534 24.966.622.464.993 1.242.993 2.082.002.924-.465 1.77-1.248 2.263zm9.216-16.357c-4.136-3.085-6.508-7.807-6.508-12.955 0-4.526 1.823-8.72 5.134-11.809 3.306-3.087 7.629-4.624 12.178-4.3 7.844.541 14.261 6.85 14.926 14.676.478 5.612-1.912 10.975-6.39 14.346-4.43 3.333-7.075 8.618-7.075 14.136 0 6.106 3.086 11.694 8.255 14.946 3.784 2.381 6.606 5.835 8.176 9.836h-38.108c1.57-4.001 4.392-7.455 8.176-9.836 5.169-3.253 8.254-8.84 8.254-14.946.001-5.548-2.623-10.816-7.018-14.094z"
         id="path8"
         style="fill:#ffffff" />
      <path
         d="m220.038 33.108h-87.453c-4.138 0-7.492 3.354-7.492 7.492s3.354 7.492 7.492 7.492h87.453c4.138 0 7.492-3.354 7.492-7.492s-3.355-7.492-7.492-7.492z"
         id="path10"
         style="fill:#ffffff" />
      <path
         d="m220.038 67.217h-27.559c-4.138 0-7.492 3.354-7.492 7.492s3.354 7.492 7.492 7.492h27.559c4.138 0 7.492-3.354 7.492-7.492s-3.355-7.492-7.492-7.492z"
         id="path12"
         style="fill:#ffffff" />
      <path
         d="m132.585 82.202h25.036c4.138 0 7.492-3.354 7.492-7.492s-3.354-7.492-7.492-7.492h-25.036c-4.138 0-7.492 3.354-7.492 7.492s3.354 7.492 7.492 7.492z"
         id="path14"
         style="fill:#ffffff" />
      <path
         d="m132.585 116.311h87.453c4.138 0 7.492-3.354 7.492-7.492s-3.354-7.492-7.492-7.492h-87.453c-4.138 0-7.492 3.354-7.492 7.492s3.354 7.492 7.492 7.492z"
         id="path16"
         style="fill:#ffffff" />
      <path
         d="m92.891 398.874c-.783-.493-1.25-1.339-1.25-2.264 0-.848.401-1.635 1.1-2.162 8.627-6.491 13.229-16.805 12.312-27.589-1.286-15.119-13.679-27.31-28.826-28.355-8.735-.598-17.057 2.343-23.434 8.295-6.288 5.869-9.894 14.166-9.894 22.764 0 9.779 4.686 19.112 12.534 24.966.622.464.993 1.242.993 2.082 0 .925-.467 1.771-1.25 2.263-10.388 6.535-16.59 17.754-16.59 30.01 0 4.138 3.354 7.492 7.492 7.492h55.909c4.138 0 7.492-3.354 7.492-7.492.002-12.255-6.2-23.474-16.588-30.01zm-37.911 22.519c1.57-4.001 4.392-7.455 8.176-9.836 5.169-3.253 8.254-8.84 8.254-14.946 0-5.547-2.624-10.815-7.019-14.093-4.136-3.085-6.508-7.807-6.508-12.955 0-4.526 1.823-8.72 5.134-11.809 3.306-3.088 7.629-4.618 12.178-4.3 7.844.54 14.261 6.85 14.926 14.676.478 5.612-1.912 10.975-6.39 14.346-4.43 3.333-7.075 8.618-7.075 14.136 0 6.106 3.086 11.694 8.255 14.946 3.784 2.381 6.606 5.835 8.176 9.836h-38.107z"
         id="path18"
         style="fill:#ffffff" />
      <path
         d="m220.038 345.802h-43.727c-4.138 0-7.492 3.354-7.492 7.492s3.354 7.492 7.492 7.492h43.727c4.138 0 7.492-3.354 7.492-7.492s-3.355-7.492-7.492-7.492z"
         id="path20"
         style="fill:#ffffff" />
      <path
         d="m141.818 345.802h-9.234c-4.138 0-7.492 3.354-7.492 7.492s3.354 7.492 7.492 7.492h9.234c4.138 0 7.492-3.354 7.492-7.492s-3.354-7.492-7.492-7.492z"
         id="path22"
         style="fill:#ffffff" />
      <path
         d="m220.038 379.91h-43.727c-4.138 0-7.492 3.354-7.492 7.492s3.354 7.492 7.492 7.492h43.727c4.138 0 7.492-3.354 7.492-7.492s-3.355-7.492-7.492-7.492z"
         id="path24"
         style="fill:#ffffff" />
      <path
         d="m141.818 379.91h-9.234c-4.138 0-7.492 3.354-7.492 7.492s3.354 7.492 7.492 7.492h9.234c4.138 0 7.492-3.354 7.492-7.492.001-4.138-3.354-7.492-7.492-7.492z"
         id="path26"
         style="fill:#ffffff" />
      <path
         d="m220.038 414.019h-43.727c-4.138 0-7.492 3.354-7.492 7.492s3.354 7.492 7.492 7.492h43.727c4.138 0 7.492-3.354 7.492-7.492s-3.355-7.492-7.492-7.492z"
         id="path28"
         style="fill:#ffffff" />
      <path
         d="m141.818 414.019h-9.234c-4.138 0-7.492 3.354-7.492 7.492s3.354 7.492 7.492 7.492h9.234c4.138 0 7.492-3.354 7.492-7.492.001-4.138-3.354-7.492-7.492-7.492z"
         id="path30"
         style="fill:#ffffff" />
      <path
         d="m419.146 242.528c-10.388 6.535-16.59 17.754-16.59 30.01 0 4.138 3.354 7.492 7.492 7.492h55.909c4.138 0 7.492-3.354 7.492-7.492 0-12.256-6.202-23.475-16.59-30.01-.782-.493-1.25-1.338-1.25-2.263 0-.84.371-1.618.993-2.082 7.849-5.854 12.534-15.188 12.534-24.966 0-8.598-3.607-16.895-9.894-22.764-6.375-5.953-14.686-8.901-23.434-8.295-15.148 1.045-27.54 13.235-28.825 28.355-.918 10.783 3.684 21.097 12.312 27.59.698.526 1.099 1.314 1.099 2.162.001.924-.466 1.77-1.248 2.263zm9.159-16.399c-4.479-3.372-6.868-8.734-6.391-14.347.665-7.825 7.083-14.134 14.927-14.675 4.532-.32 8.871 1.214 12.178 4.3 3.31 3.09 5.134 7.284 5.134 11.809 0 5.147-2.373 9.869-6.508 12.955-4.395 3.277-7.019 8.546-7.019 14.093 0 6.106 3.086 11.693 8.254 14.946 3.784 2.381 6.606 5.835 8.175 9.836h-38.105c1.569-4.001 4.392-7.454 8.175-9.836 5.169-3.252 8.254-8.84 8.254-14.947.001-5.518-2.644-10.801-7.074-14.134z"
         id="path32"
         style="fill:#ffffff" />
      <path
         d="m291.999 204.439h36.87c4.138 0 7.492-3.354 7.492-7.492s-3.354-7.492-7.492-7.492h-36.87c-4.138 0-7.492 3.354-7.492 7.492-.001 4.138 3.353 7.492 7.492 7.492z"
         id="path34"
         style="fill:#ffffff" />
      <path
         d="m379.452 189.455h-15.689c-4.138 0-7.492 3.354-7.492 7.492s3.354 7.492 7.492 7.492h15.689c4.138 0 7.492-3.354 7.492-7.492s-3.354-7.492-7.492-7.492z"
         id="path36"
         style="fill:#ffffff" />
      <path
         d="m379.452 223.563h-87.453c-4.138 0-7.492 3.354-7.492 7.492s3.354 7.492 7.492 7.492h87.453c4.138 0 7.492-3.354 7.492-7.492s-3.354-7.492-7.492-7.492z"
         id="path38"
         style="fill:#ffffff" />
      <path
         d="m379.452 257.672h-87.453c-4.138 0-7.492 3.354-7.492 7.492s3.354 7.492 7.492 7.492h87.453c4.138 0 7.492-3.354 7.492-7.492s-3.354-7.492-7.492-7.492z"
         id="path40"
         style="fill:#ffffff" />
    </g>
  </g>
</svg>
