<?xml version="1.0" encoding="UTF-8" standalone="no"?>
<svg
   xmlns:dc="http://purl.org/dc/elements/1.1/"
   xmlns:cc="http://creativecommons.org/ns#"
   xmlns:rdf="http://www.w3.org/1999/02/22-rdf-syntax-ns#"
   xmlns:svg="http://www.w3.org/2000/svg"
   xmlns="http://www.w3.org/2000/svg"
   xmlns:sodipodi="http://sodipodi.sourceforge.net/DTD/sodipodi-0.dtd"
   xmlns:inkscape="http://www.inkscape.org/namespaces/inkscape"
   id="Outline"
   viewBox="0 0 512 512"
   width="512"
   height="512"
   version="1.1"
   sodipodi:docname="take-away.svg"
   inkscape:version="1.0.2 (1.0.2+r75+1)">
  <metadata
     id="metadata13">
    <rdf:RDF>
      <cc:Work
         rdf:about="">
        <dc:format>image/svg+xml</dc:format>
        <dc:type
           rdf:resource="http://purl.org/dc/dcmitype/StillImage" />
      </cc:Work>
    </rdf:RDF>
  </metadata>
  <defs
     id="defs11" />
  <sodipodi:namedview
     pagecolor="#ffffff"
     bordercolor="#666666"
     borderopacity="1"
     objecttolerance="10"
     gridtolerance="10"
     guidetolerance="10"
     inkscape:pageopacity="0"
     inkscape:pageshadow="2"
     inkscape:window-width="1280"
     inkscape:window-height="967"
     id="namedview9"
     showgrid="false"
     inkscape:zoom="0.46403883"
     inkscape:cx="37.209835"
     inkscape:cy="272.54446"
     inkscape:window-x="0"
     inkscape:window-y="27"
     inkscape:window-maximized="1"
     inkscape:current-layer="Outline"
     inkscape:document-rotation="0" />
  <path
     d="M438.806,226.238,404.8,90.205C411.625,83.31,416,70.846,416,56c0-22.8-10.317-40-24-40H104C90.318,16,80,33.2,80,56s10.318,40,24,40h1.754L73.194,226.237a40.062,40.062,0,0,0-1.194,9.7V488a8,8,0,0,0,8,8H432a8,8,0,0,0,8-8V235.939A40.047,40.047,0,0,0,438.806,226.238ZM424,235.939V468.686l-24-24V248a8,8,0,0,0-16,0V444.686l-24,24V235.939a24.048,24.048,0,0,1,.716-5.82L392,104.983l31.283,125.133A24.042,24.042,0,0,1,424,235.939ZM392,459.313,412.686,480H371.314ZM400,56c0,15.488-6.009,24-8,24s-8-8.512-8-24,6.009-24,8-24S400,40.512,400,56ZM96,56c0-16.281,6.417-24,8-24H372.542A60.643,60.643,0,0,0,368,56a60.643,60.643,0,0,0,4.542,24H104C102.417,80,96,72.281,96,56ZM88,235.939a23.993,23.993,0,0,1,.717-5.82L122.246,96H377.754L345.193,226.24a40.067,40.067,0,0,0-1.193,9.7V480H88Z"
     id="path2"
     style="fill:#333333;fill-opacity:1" />
  <g
     id="g108"
     transform="matrix(0.6305773,0,0,0.6305773,324.28987,106.99565)"
     style="fill:#333333;fill-opacity:1">
    <path
       d="m -168.56836,462.21536 c 50.089,-0.005 96.159,-27.42 120.055,-71.441 0.102,-0.222 0.19,-0.45 0.265,-0.683 0.06,-0.128 0.102,-0.265 0.154,-0.401 0.385,-0.983 0.593,-2.026 0.614,-3.081 -0.016,-1.021 -0.219,-2.03 -0.597,-2.978 -0.068,-0.188 -0.128,-0.367 -0.205,-0.538 -0.403,-0.886 -0.954,-1.697 -1.63,-2.398 -0.081,-0.078 -0.167,-0.153 -0.256,-0.222 -0.318,-0.333 -0.663,-0.639 -1.033,-0.913 -11.24,-7.618 -16.895,-21.173 -14.403,-34.52 2.492,-13.347 12.658,-23.948 25.889,-26.997 0.905,-0.396 1.807,-0.8 2.705,-1.212 0.445,-0.316 0.859,-0.673 1.237,-1.067 0.404,-0.357 0.772,-0.751 1.101,-1.178 0.293,-0.454 0.539,-0.938 0.734,-1.442 0.245,-0.483 0.442,-0.989 0.589,-1.51 0.099,-0.563 0.142,-1.135 0.128,-1.707 0.061,-0.418 0.093,-0.84 0.094,-1.263 0,-0.265 -0.102,-0.521 -0.137,-0.794 v -0.051 c -2.429,-18.993 -8.898,-37.245 -18.97,-53.53 l -0.085,-0.094 c 0,0 0,-0.094 -0.06,-0.137 -0.365,-0.463 -0.783,-0.881 -1.246,-1.246 -0.314,-0.381 -0.663,-0.732 -1.041,-1.05 -0.537,-0.322 -1.109,-0.58 -1.707,-0.768 -0.409,-0.215 -0.838,-0.393 -1.28,-0.529 -1.085,-0.069 -2.173,-0.097 -3.26,-0.085 -0.554,0.142 -1.092,0.342 -1.604,0.597 -0.501,0.128 -0.987,0.308 -1.451,0.538 l -0.102,0.094 -0.119,0.051 c -12.61,8.407 -29.249,7.511 -40.883,-2.202 -11.634,-9.713 -15.486,-25.925 -9.464,-39.833 v -0.137 c 0.031,-0.038 0.06,-0.078 0.085,-0.119 0.138,-0.508 0.227,-1.028 0.265,-1.553 0.147,-0.524 0.244,-1.062 0.29,-1.604 -0.052,-0.546 -0.155,-1.086 -0.307,-1.613 -0.076,-0.532 -0.196,-1.058 -0.358,-1.57 -0.264,-0.504 -0.575,-0.981 -0.93,-1.425 -0.244,-0.45 -0.529,-0.876 -0.853,-1.271 -0.456,-0.394 -0.954,-0.737 -1.485,-1.024 -0.372,-0.32 -0.772,-0.605 -1.195,-0.853 h -0.137 c -0.039,-0.033 -0.082,-0.062 -0.128,-0.085 -51.143,-19.818 -109.18,-7.109 -147.359,32.27 -38.179,39.379 -49.087,97.781 -27.697,148.287 21.392,50.506 70.929,83.308 125.777,83.287 z m -117.435,-158.502 c 10.575,-56.529 59.925,-97.501 117.435,-97.498 12.046,0.023 24.019,1.879 35.507,5.504 -4.444,18.813 2.124,38.521 16.964,50.908 14.84,12.387 35.406,15.324 53.12,7.588 5.599,10.562 9.542,21.922 11.691,33.681 -16.172,6.547 -27.888,20.891 -31.075,38.044 -3.186,17.154 2.597,34.748 15.339,46.666 -30.291,48.885 -91.113,69.252 -144.734,48.464 -53.621,-20.787 -84.822,-76.828 -74.247,-133.357 z"
       id="path12"
       style="fill:#333333;fill-opacity:1" />
    <path
       d="m -177.10136,300.08136 c 18.851,0 34.133,-15.282 34.133,-34.133 0,-18.851 -15.282,-34.133 -34.133,-34.133 -18.851,0 -34.133,15.282 -34.133,34.133 0,18.851 15.281,34.133 34.133,34.133 z m 0,-51.2 c 9.426,0 17.067,7.641 17.067,17.067 0,9.426 -7.641,17.067 -17.067,17.067 -9.426,0 -17.067,-7.641 -17.067,-17.067 0,-9.426 7.641,-17.067 17.067,-17.067 z"
       id="path14"
       style="fill:#333333;fill-opacity:1" />
    <path
       d="m -219.76836,317.14836 c 0,-14.138 -11.461,-25.6 -25.6,-25.6 -14.139,0 -25.6,11.462 -25.6,25.6 0,14.138 11.461,25.6 25.6,25.6 14.139,0 25.6,-11.461 25.6,-25.6 z m -34.133,0 c 0,-4.713 3.82,-8.533 8.533,-8.533 4.713,0 8.533,3.82 8.533,8.533 0,4.713 -3.82,8.533 -8.533,8.533 -4.713,0 -8.533,-3.82 -8.533,-8.533 z"
       id="path16"
       style="fill:#333333;fill-opacity:1" />
    <path
       d="m -151.50136,393.94836 c 0,14.138 11.461,25.6 25.6,25.6 14.139,0 25.6,-11.461 25.6,-25.6 0,-14.139 -11.461,-25.6 -25.6,-25.6 -14.139,0 -25.6,11.462 -25.6,25.6 z m 25.6,-8.533 c 4.713,0 8.533,3.82 8.533,8.533 0,4.713 -3.82,8.533 -8.533,8.533 -4.713,0 -8.533,-3.82 -8.533,-8.533 0,-4.713 3.82,-8.533 8.533,-8.533 z"
       id="path18"
       style="fill:#333333;fill-opacity:1" />
    <path
       d="m -208.76036,400.00736 c 0.404,0.365 0.829,0.707 1.271,1.024 0.479,0.322 0.999,0.58 1.545,0.768 0.484,0.247 1.001,0.419 1.536,0.512 0.564,0.095 1.135,0.152 1.707,0.171 2.27,0.023 4.454,-0.869 6.059,-2.474 1.605,-1.605 2.497,-3.789 2.474,-6.059 -0.018,-0.573 -0.078,-1.143 -0.179,-1.707 -0.085,-0.535 -0.255,-1.054 -0.503,-1.536 -0.19,-0.542 -0.448,-1.058 -0.768,-1.536 -0.315,-0.447 -0.657,-0.875 -1.024,-1.28 -2.071,-1.966 -4.957,-2.822 -7.765,-2.304 -0.535,0.093 -1.052,0.266 -1.536,0.512 -0.546,0.188 -1.065,0.446 -1.545,0.768 l -1.271,1.024 -1.024,1.28 c -0.323,0.476 -0.581,0.992 -0.768,1.536 -0.246,0.484 -0.419,1.001 -0.512,1.536 -0.095,0.564 -0.152,1.135 -0.171,1.707 0.013,1.115 0.245,2.217 0.683,3.243 0.411,1.043 1.02,1.999 1.791,2.815 z"
       id="path20"
       style="fill:#333333;fill-opacity:1" />
    <path
       d="m -113.62236,332.76436 c 0.479,0.322 0.999,0.58 1.544,0.768 0.484,0.247 1.001,0.419 1.536,0.512 0.564,0.099 1.134,0.156 1.707,0.171 2.259,-0.033 4.422,-0.917 6.059,-2.475 0.79,-0.802 1.4,-1.761 1.792,-2.816 0.91,-2.066 0.91,-4.419 0,-6.485 -0.412,-1.044 -1.021,-2 -1.792,-2.816 -0.831,-0.751 -1.783,-1.357 -2.816,-1.792 -3.182,-1.297 -6.829,-0.594 -9.301,1.792 -3.3,3.365 -3.3,8.752 0,12.117 0.404,0.365 0.828,0.707 1.271,1.024 z"
       id="path22"
       style="fill:#333333;fill-opacity:1" />
    <path
       d="m -165.32536,326.36436 c -2.078,-0.854 -4.408,-0.854 -6.485,0 -1.044,0.412 -2,1.021 -2.816,1.792 -3.3,3.365 -3.3,8.752 0,12.117 0.816,0.771 1.772,1.38 2.816,1.792 2.066,0.91 4.419,0.91 6.485,0 1.033,-0.435 1.985,-1.041 2.816,-1.792 2.07,-1.995 2.978,-4.909 2.407,-7.727 -0.571,-2.817 -2.54,-5.149 -5.223,-6.182 z"
       id="path24"
       style="fill:#333333;fill-opacity:1" />
  </g>
</svg>
